# xmcd
#
# Track frame offsets:
#	182
#	18282
#	31352
#	43592
#	59102
#	75542
#	91017
#	106557
#	124217
#	140672
#	157192
#	178075
#	188067
#
# Disc length: 2718
#
# Revision: 5
# Processed by: cddbd v1.5.2PL0 Copyright (c) Steve Scherf et al.
# Submitted via: Broken Cross Disk Manager 3.94.2201
#
DISCID=a80a9c0d
DTITLE=Various Artist - Absolute Country 2
DYEAR=1995
DGENRE=
TTITLE0=THE TRACTORS - Baby Likes To Rock It
TTITLE1=PAM TILLIS - Mi Vida Loca
TTITLE2=CLINT BLACK - Hey Hot Rod
TTITLE3=MARTINA McBRIDE - Independence Day
TTITLE4=WAYLON JENNINGS - Wild Ones
TTITLE5=BROOKS and DUNN - She's Not The Cheatin' Kind
TTITLE6=LARI WHITE - That's My Baby
TTITLE7=ALAN JACKSON - Gone Country
TTITLE8=BLACKHAWK - I Sure Can Smell The Rain
TTITLE9=MICHELLE WRIGHT - One Good Man
TTITLE10=JON RANDALL - What You Don't Know
TTITLE11=CLAY WALKER - If I Could Make A Living
TTITLE12=DIAMOND RIO - Night Is Falling In My Heart
EXTD=
EXTT0=
EXTT1=
EXTT2=
EXTT3=
EXTT4=
EXTT5=
EXTT6=
EXTT7=
EXTT8=
EXTT9=
EXTT10=
EXTT11=
EXTT12=
PLAYORDER=
